#define max_width 8
#define max_height 8
static unsigned char max_bits[] = {
   0xe0, 0x80, 0x80, 0x00, 0x00, 0x01, 0x01, 0x07 };
