#define max_toggled_width 8
#define max_toggled_height 8
static unsigned char max_toggled_bits[] = {
   0xe0, 0x80, 0x80, 0x18, 0x18, 0x01, 0x01, 0x07 };
